# xmcd
#
# Track frame offsets:
#	150
#	17040
#	32460
#	46445
#	59520
#	75950
#	92285
#	110433
#	124628
#	140030
#	152870
#	166732
#	180007
#	194034
#	216804
#	236011
#	251515
#	261978
#	281188
#	296476
#	312281
#
# Disc length: 4300 seconds
#
# Revision: 0
# Processed by: cddbd v1.4PL0 Copyright (c) Steve Scherf et al.
# Submitted via: dBpowerAMP V4.0
#
DISCID=2310ca15
DTITLE=Julio Preciado y la Perla del Paciífico - 21 Super éxitos
DYEAR=2002
DGENRE=Banda
TTITLE0=Como este loco
TTITLE1=Que puedo hacer por ti
TTITLE2=Dos hojas sin rumbo
TTITLE3=Para poder llegar a ti
TTITLE4=No tienes corazón
TTITLE5=Un rinconcito en el cielo
TTITLE6=Se me hizo piedra el alma
TTITLE7=Mira nomas
TTITLE8=Dime donde
TTITLE9=Se me cerro el mundo
TTITLE10=Sigue sin mi
TTITLE11=Oh Carolina
TTITLE12=El disgusto
TTITLE13=Lluvia
TTITLE14=Echame a mi la culpa
TTITLE15=Si no vas a volver
TTITLE16=La silla vacia
TTITLE17=Tu ya lo conoces
TTITLE18=Con botellitas
TTITLE19=Te invito a volar
TTITLE20=Juanita y Miguel
EXTD=
EXTT0=
EXTT1=
EXTT2=
EXTT3=
EXTT4=
EXTT5=
EXTT6=
EXTT7=
EXTT8=
EXTT9=
EXTT10=
EXTT11=
EXTT12=
EXTT13=
EXTT14=
EXTT15=
EXTT16=
EXTT17=
EXTT18=
EXTT19=
EXTT20=
PLAYORDER=
